<?xml version="1.0" standalone="no"?><!DOCTYPE svg PUBLIC "-//W3C//DTD SVG 1.1//EN" "http://www.w3.org/Graphics/SVG/1.1/DTD/svg11.dtd"><svg t="1587211360158" class="icon" viewBox="0 0 1024 1024" version="1.1" xmlns="http://www.w3.org/2000/svg" p-id="2617" xmlns:xlink="http://www.w3.org/1999/xlink" width="200" height="200"><defs><style type="text/css"></style></defs><path d="M928.143934 0.049119l-767.961882 0c-17.686807 0-31.998753 14.374368-31.998753 31.998753l0 959.953376c0 17.748205 14.311946 31.998753 31.998753 31.998753l767.961882 0c17.685783 0 31.998753-14.250548 31.998753-31.998753L960.142687 32.047871C960.141664 14.423486 945.829718 0.049119 928.143934 0.049119zM896.145181 960.002494l-703.965399 0L192.179782 64.046624l703.965399 0L896.145181 960.002494z" p-id="2618"></path><path d="M288.175017 512.024048l511.974929 0c17.686807 0 31.998753-14.249525 31.998753-31.998753L832.148699 160.040836c0-17.624385-14.311946-31.998753-31.998753-31.998753l-511.974929 0c-17.686807 0-31.998753 14.374368-31.998753 31.998753L256.176264 480.025295C256.177288 497.774523 270.489234 512.024048 288.175017 512.024048zM320.17377 192.039589 768.152217 192.039589 768.152217 448.026542 608.156406 448.026542c-0.067538-35.315285-28.662778-63.871639-63.993412-63.871639-1.240246 0-2.471282 0.044002-3.694132 0.113587L437.261372 281.035417c-16.84258-16.749459-40.560747-20.249163-53.091119-7.74949-12.499673 12.499673-8.999969 36.248539 7.811912 52.997998l94.37125 94.37125c-3.947911 8.293888-6.166437 17.571173-6.184856 27.37239l-159.995811 0L320.172747 192.039589z" p-id="2619"></path><path d="M544.162993 608.019283c-70.715504 0-127.993988 57.372628-127.993988 127.992965 0 70.74825 57.278484 127.995011 127.993988 127.995011 70.714481 0 127.993988-57.246761 127.993988-127.995011C672.156981 665.392934 614.877474 608.019283 544.162993 608.019283zM544.162993 800.010777c-35.280493 0-63.997506-28.718036-63.997506-63.998529 0-35.278446 28.717013-63.996482 63.997506-63.996482 35.279469 0 63.996482 28.718036 63.996482 63.996482C608.159476 771.29274 579.442463 800.010777 544.162993 800.010777z" p-id="2620"></path><path d="M288.175017 704.014518c17.686807 0 31.998753-14.248501 31.998753-31.998753 0-17.624385-14.311946-31.998753-31.998753-31.998753s-31.998753 14.374368-31.998753 31.998753C256.177288 689.766017 270.489234 704.014518 288.175017 704.014518z" p-id="2621"></path><path d="M800.149946 640.018036c-17.686807 0-31.998753 14.374368-31.998753 31.998753 0 17.750252 14.311946 31.998753 31.998753 31.998753s31.998753-14.248501 31.998753-31.998753C832.148699 654.392404 817.836753 640.018036 800.149946 640.018036z" p-id="2622"></path></svg>